<svg width="41" height="32" viewBox="0 0 41 32" fill="none" xmlns="http://www.w3.org/2000/svg">
<path d="M29.6111 11.4286C29.6111 5.11429 22.9842 0 14.8056 0C6.62691 0 0 5.11429 0 11.4286C0 13.8786 1.00365 16.1357 2.70486 18C1.75104 20.1571 0.177951 21.8714 0.156597 21.8929C0 22.0571 -0.0427083 22.3 0.0498264 22.5143C0.142361 22.7286 0.341667 22.8571 0.569444 22.8571C3.17465 22.8571 5.33142 21.9786 6.88316 21.0714C9.17517 22.1929 11.8872 22.8571 14.8056 22.8571C22.9842 22.8571 29.6111 17.7429 29.6111 11.4286ZM38.2951 27.1429C39.9964 25.2857 41 23.0214 41 20.5714C41 15.7929 37.1918 11.7 31.7964 9.99286C31.8604 10.4643 31.8889 10.9429 31.8889 11.4286C31.8889 18.9929 24.2227 25.1429 14.8056 25.1429C14.0368 25.1429 13.2894 25.0857 12.5491 25.0071C14.7913 29.1143 20.0587 32 26.1944 32C29.1128 32 31.8248 31.3429 34.1168 30.2143C35.6686 31.1214 37.8253 32 40.4306 32C40.6583 32 40.8648 31.8643 40.9502 31.6571C41.0427 31.45 41 31.2071 40.8434 31.0357C40.822 31.0143 39.249 29.3071 38.2951 27.1429Z" fill="#797575"/>
</svg>
