<svg width="38" height="38" viewBox="0 0 38 38" fill="none" xmlns="http://www.w3.org/2000/svg">
<path d="M36.9163 26.8521L28.6037 23.2896C28.2486 23.1382 27.8539 23.1064 27.4791 23.1987C27.1043 23.2911 26.7696 23.5027 26.5255 23.8017L22.8442 28.2994C17.0667 25.5754 12.4172 20.9259 9.69314 15.1484L14.1909 11.4671C14.4905 11.2234 14.7025 10.8887 14.7949 10.5137C14.8874 10.1388 14.8551 9.7439 14.703 9.38891L11.1404 1.07626C10.9735 0.693588 10.6783 0.381149 10.3057 0.192818C9.93312 0.00448671 9.50648 -0.0479317 9.09938 0.0446013L1.38049 1.82588C0.987994 1.91652 0.637806 2.13752 0.387084 2.45281C0.136361 2.7681 -9.04156e-05 3.15906 4.49492e-08 3.56189C4.49492e-08 22.5993 15.4303 38 34.4381 38C34.8411 38.0003 35.2322 37.8639 35.5476 37.6131C35.8631 37.3624 36.0842 37.0121 36.1748 36.6195L37.9561 28.9006C38.0481 28.4915 37.9945 28.0632 37.8047 27.6893C37.615 27.3154 37.3008 27.0194 36.9163 26.8521Z" fill="white"/>
</svg>
