<svg width="67" height="59" viewBox="0 0 67 59" fill="none" xmlns="http://www.w3.org/2000/svg">
<path d="M60.7188 29.5H50.25V21.0714C50.25 16.4225 54.0057 12.6429 58.625 12.6429H59.6719C61.4123 12.6429 62.8125 11.2337 62.8125 9.48214V3.16071C62.8125 1.40915 61.4123 0 59.6719 0H58.625C47.057 0 37.6875 9.42946 37.6875 21.0714V52.6786C37.6875 56.1685 40.501 59 43.9688 59H60.7188C64.1865 59 67 56.1685 67 52.6786V35.8214C67 32.3315 64.1865 29.5 60.7188 29.5ZM23.0312 29.5H12.5625V21.0714C12.5625 16.4225 16.3182 12.6429 20.9375 12.6429H21.9844C23.7248 12.6429 25.125 11.2337 25.125 9.48214V3.16071C25.125 1.40915 23.7248 0 21.9844 0H20.9375C9.36953 0 0 9.42946 0 21.0714V52.6786C0 56.1685 2.81348 59 6.28125 59H23.0312C26.499 59 29.3125 56.1685 29.3125 52.6786V35.8214C29.3125 32.3315 26.499 29.5 23.0312 29.5Z" fill="#D9D9D9"/>
</svg>
