<svg width="67" height="59" viewBox="0 0 67 59" fill="none" xmlns="http://www.w3.org/2000/svg">
<path d="M60.7188 0H43.9688C40.501 0 37.6875 2.83147 37.6875 6.32143V23.1786C37.6875 26.6685 40.501 29.5 43.9688 29.5H54.4375V37.9286C54.4375 42.5775 50.6818 46.3571 46.0625 46.3571H45.0156C43.2752 46.3571 41.875 47.7663 41.875 49.5179V55.8393C41.875 57.5909 43.2752 59 45.0156 59H46.0625C57.6305 59 67 49.5705 67 37.9286V6.32143C67 2.83147 64.1865 0 60.7188 0ZM23.0312 0H6.28125C2.81348 0 0 2.83147 0 6.32143V23.1786C0 26.6685 2.81348 29.5 6.28125 29.5H16.75V37.9286C16.75 42.5775 12.9943 46.3571 8.375 46.3571H7.32812C5.5877 46.3571 4.1875 47.7663 4.1875 49.5179V55.8393C4.1875 57.5909 5.5877 59 7.32812 59H8.375C19.943 59 29.3125 49.5705 29.3125 37.9286V6.32143C29.3125 2.83147 26.499 0 23.0312 0Z" fill="#D9D9D9"/>
</svg>
