<svg width="40" height="30" viewBox="0 0 40 30" fill="none" xmlns="http://www.w3.org/2000/svg">
<path d="M39.1642 4.69398C38.7041 2.84633 37.3487 1.39117 35.6277 0.897344C32.5084 0 20 0 20 0C20 0 7.49171 0 4.37226 0.897344C2.65129 1.39125 1.29587 2.84633 0.835839 4.69398C0 8.04297 0 15.0303 0 15.0303C0 15.0303 0 22.0177 0.835839 25.3666C1.29587 27.2143 2.65129 28.6088 4.37226 29.1027C7.49171 30 20 30 20 30C20 30 32.5083 30 35.6277 29.1027C37.3487 28.6088 38.7041 27.2143 39.1642 25.3666C40 22.0177 40 15.0303 40 15.0303C40 15.0303 40 8.04297 39.1642 4.69398ZM15.9091 21.3743V8.68633L26.3636 15.0305L15.9091 21.3743Z" fill="white"/>
</svg>
